<svg width="101" height="33" viewBox="0 0 101 33" fill="none" xmlns="http://www.w3.org/2000/svg">
<path d="M32.1055 16.7752C32.1055 25.5985 24.9737 32.75 16.1778 32.75C7.38178 32.75 0.25 25.5985 0.25 16.7752C0.25 7.9518 7.38179 0.800293 16.1778 0.800293C24.9737 0.800293 32.1055 7.9518 32.1055 16.7752Z" fill="white" stroke="#A0A7AC" stroke-width="0.5"/>
<path fill-rule="evenodd" clip-rule="evenodd" d="M15.636 24.4012C13.0339 24.2404 10.542 22.6328 9.33062 20.2833C8.20641 18.1031 8.22409 15.3641 9.37311 13.2005C10.6594 10.7786 13.211 9.30173 16.0351 9.17471C16.0351 9.17471 16.7369 9.12931 17.2053 8.86062C18.595 8.063 18.8025 5.7086 17.3089 4.74723C16.9068 4.48847 16.4269 4.36864 15.9484 4.37013C11.2303 4.41578 6.66783 7.3939 4.75001 11.8122C3.13824 15.5259 3.47352 20.0295 5.66324 23.4733C7.40592 26.2138 10.248 28.2179 13.4008 28.9108C17.7154 29.8593 22.4945 28.2474 25.3786 24.8488C28.2381 21.4787 29.1118 16.4969 27.5103 12.3148C26.5922 9.91725 24.9654 7.73081 22.7887 6.41541C22.675 6.34669 22.5559 6.29013 22.4331 6.24497C24.6228 8.13917 26.011 10.9498 26.011 14.0847C26.011 19.7829 21.425 24.4089 15.776 24.4089C15.7298 24.4089 15.7251 24.4067 15.636 24.4012V24.4012Z" fill="#1292EE"/>
<path d="M45.2131 22.9855C44.4538 21.6368 43.6321 20.3051 42.7481 18.9905C41.8641 17.6758 40.9234 16.4348 39.9261 15.2675V22.9855H37.3081V11.2045H39.4671C39.8411 11.5785 40.2548 12.0375 40.7081 12.5815C41.1614 13.1255 41.6204 13.7091 42.0851 14.3325C42.5611 14.9445 43.0314 15.5848 43.4961 16.2535C43.9608 16.9108 44.3971 17.5455 44.8051 18.1575V11.2045H47.4401V22.9855H45.2131Z" fill="#2A3B47"/>
<path d="M53.4047 21.2175C53.654 21.2175 53.892 21.2118 54.1187 21.2005C54.3454 21.1891 54.5267 21.1721 54.6627 21.1495V19.2285C54.5607 19.2058 54.4077 19.1831 54.2037 19.1605C53.9997 19.1378 53.8127 19.1265 53.6427 19.1265C53.4047 19.1265 53.178 19.1435 52.9627 19.1775C52.7587 19.2001 52.5774 19.2511 52.4187 19.3305C52.26 19.4098 52.1354 19.5175 52.0447 19.6535C51.954 19.7895 51.9087 19.9595 51.9087 20.1635C51.9087 20.5601 52.039 20.8378 52.2997 20.9965C52.5717 21.1438 52.94 21.2175 53.4047 21.2175ZM53.2007 13.8055C53.9487 13.8055 54.572 13.8905 55.0707 14.0605C55.5694 14.2305 55.966 14.4741 56.2607 14.7915C56.5667 15.1088 56.782 15.4941 56.9067 15.9475C57.0314 16.4008 57.0937 16.9051 57.0937 17.4605V22.7305C56.731 22.8098 56.2267 22.9005 55.5807 23.0025C54.9347 23.1158 54.1527 23.1725 53.2347 23.1725C52.6567 23.1725 52.1297 23.1215 51.6537 23.0195C51.189 22.9175 50.7867 22.7531 50.4467 22.5265C50.1067 22.2885 49.846 21.9825 49.6647 21.6085C49.4834 21.2345 49.3927 20.7755 49.3927 20.2315C49.3927 19.7101 49.4947 19.2681 49.6987 18.9055C49.914 18.5428 50.1974 18.2538 50.5487 18.0385C50.9 17.8231 51.3024 17.6701 51.7557 17.5795C52.209 17.4775 52.6794 17.4265 53.1667 17.4265C53.4954 17.4265 53.7844 17.4435 54.0337 17.4775C54.2944 17.5001 54.504 17.5341 54.6627 17.5795V17.3415C54.6627 16.9108 54.5324 16.5651 54.2717 16.3045C54.011 16.0438 53.5577 15.9135 52.9117 15.9135C52.481 15.9135 52.056 15.9475 51.6367 16.0155C51.2174 16.0721 50.8547 16.1571 50.5487 16.2705L50.2257 14.2305C50.373 14.1851 50.5544 14.1398 50.7697 14.0945C50.9964 14.0378 51.24 13.9925 51.5007 13.9585C51.7614 13.9131 52.0334 13.8791 52.3167 13.8565C52.6114 13.8225 52.906 13.8055 53.2007 13.8055Z" fill="#2A3B47"/>
<path d="M61.5994 22.9855C61.0214 21.8521 60.432 20.5261 59.8314 19.0075C59.242 17.4888 58.681 15.8341 58.1484 14.0435H60.8344C60.9477 14.4855 61.078 14.9671 61.2254 15.4885C61.384 15.9985 61.5427 16.5198 61.7014 17.0525C61.8714 17.5738 62.0357 18.0838 62.1944 18.5825C62.3644 19.0811 62.5287 19.5345 62.6874 19.9425C62.8347 19.5345 62.9934 19.0811 63.1634 18.5825C63.3334 18.0838 63.4977 17.5738 63.6564 17.0525C63.8264 16.5198 63.985 15.9985 64.1324 15.4885C64.291 14.9671 64.427 14.4855 64.5404 14.0435H67.1584C66.6257 15.8341 66.059 17.4888 65.4584 19.0075C64.869 20.5261 64.2854 21.8521 63.7074 22.9855H61.5994Z" fill="#2A3B47"/>
<path d="M71.0481 22.9855H68.5151V14.0435H71.0481V22.9855ZM71.2861 11.4595C71.2861 11.9241 71.1331 12.2925 70.8271 12.5645C70.5324 12.8251 70.1811 12.9555 69.7731 12.9555C69.3651 12.9555 69.0081 12.8251 68.7021 12.5645C68.4074 12.2925 68.2601 11.9241 68.2601 11.4595C68.2601 10.9948 68.4074 10.6321 68.7021 10.3715C69.0081 10.0995 69.3651 9.96346 69.7731 9.96346C70.1811 9.96346 70.5324 10.0995 70.8271 10.3715C71.1331 10.6321 71.2861 10.9948 71.2861 11.4595Z" fill="#2A3B47"/>
<path d="M75.5881 18.4465C75.5881 19.2285 75.7638 19.8575 76.1151 20.3335C76.4665 20.8095 76.9878 21.0475 77.6791 21.0475C77.9058 21.0475 78.1155 21.0418 78.3081 21.0305C78.5008 21.0078 78.6595 20.9851 78.7841 20.9625V16.3555C78.6255 16.2535 78.4158 16.1685 78.1551 16.1005C77.9058 16.0325 77.6508 15.9985 77.3901 15.9985C76.1888 15.9985 75.5881 16.8145 75.5881 18.4465ZM81.3171 22.6965C81.0905 22.7645 80.8298 22.8325 80.5351 22.9005C80.2405 22.9571 79.9288 23.0081 79.6001 23.0535C79.2828 23.0988 78.9541 23.1328 78.6141 23.1555C78.2855 23.1895 77.9681 23.2065 77.6621 23.2065C76.9255 23.2065 76.2681 23.0988 75.6901 22.8835C75.1121 22.6681 74.6248 22.3621 74.2281 21.9655C73.8315 21.5575 73.5255 21.0701 73.3101 20.5035C73.1061 19.9255 73.0041 19.2795 73.0041 18.5655C73.0041 17.8401 73.0948 17.1885 73.2761 16.6105C73.4575 16.0211 73.7181 15.5225 74.0581 15.1145C74.3981 14.7065 74.8118 14.3948 75.2991 14.1795C75.7978 13.9641 76.3645 13.8565 76.9991 13.8565C77.3505 13.8565 77.6621 13.8905 77.9341 13.9585C78.2175 14.0265 78.5008 14.1228 78.7841 14.2475V10.2015L81.3171 9.79346V22.6965Z" fill="#2A3B47"/>
<path d="M87.1059 21.2175C87.3552 21.2175 87.5932 21.2118 87.8199 21.2005C88.0466 21.1891 88.2279 21.1721 88.3639 21.1495V19.2285C88.2619 19.2058 88.1089 19.1831 87.9049 19.1605C87.7009 19.1378 87.5139 19.1265 87.3439 19.1265C87.1059 19.1265 86.8792 19.1435 86.6639 19.1775C86.4599 19.2001 86.2786 19.2511 86.1199 19.3305C85.9612 19.4098 85.8366 19.5175 85.7459 19.6535C85.6552 19.7895 85.6099 19.9595 85.6099 20.1635C85.6099 20.5601 85.7402 20.8378 86.0009 20.9965C86.2729 21.1438 86.6412 21.2175 87.1059 21.2175ZM86.9019 13.8055C87.6499 13.8055 88.2732 13.8905 88.7719 14.0605C89.2706 14.2305 89.6672 14.4741 89.9619 14.7915C90.2679 15.1088 90.4832 15.4941 90.6079 15.9475C90.7326 16.4008 90.7949 16.9051 90.7949 17.4605V22.7305C90.4322 22.8098 89.9279 22.9005 89.2819 23.0025C88.6359 23.1158 87.8539 23.1725 86.9359 23.1725C86.3579 23.1725 85.8309 23.1215 85.3549 23.0195C84.8902 22.9175 84.4879 22.7531 84.1479 22.5265C83.8079 22.2885 83.5472 21.9825 83.3659 21.6085C83.1846 21.2345 83.0939 20.7755 83.0939 20.2315C83.0939 19.7101 83.1959 19.2681 83.3999 18.9055C83.6152 18.5428 83.8986 18.2538 84.2499 18.0385C84.6012 17.8231 85.0036 17.6701 85.4569 17.5795C85.9102 17.4775 86.3806 17.4265 86.8679 17.4265C87.1966 17.4265 87.4856 17.4435 87.7349 17.4775C87.9956 17.5001 88.2052 17.5341 88.3639 17.5795V17.3415C88.3639 16.9108 88.2336 16.5651 87.9729 16.3045C87.7122 16.0438 87.2589 15.9135 86.6129 15.9135C86.1822 15.9135 85.7572 15.9475 85.3379 16.0155C84.9186 16.0721 84.5559 16.1571 84.2499 16.2705L83.9269 14.2305C84.0742 14.1851 84.2556 14.1398 84.4709 14.0945C84.6976 14.0378 84.9412 13.9925 85.2019 13.9585C85.4626 13.9131 85.7346 13.8791 86.0179 13.8565C86.3126 13.8225 86.6072 13.8055 86.9019 13.8055Z" fill="#2A3B47"/>
<path d="M95.2444 18.4465C95.2444 19.2285 95.42 19.8575 95.7714 20.3335C96.1227 20.8095 96.644 21.0475 97.3354 21.0475C97.562 21.0475 97.7717 21.0418 97.9644 21.0305C98.157 21.0078 98.3157 20.9851 98.4404 20.9625V16.3555C98.2817 16.2535 98.072 16.1685 97.8114 16.1005C97.562 16.0325 97.307 15.9985 97.0464 15.9985C95.845 15.9985 95.2444 16.8145 95.2444 18.4465ZM100.973 22.6965C100.747 22.7645 100.486 22.8325 100.191 22.9005C99.8967 22.9571 99.585 23.0081 99.2564 23.0535C98.939 23.0988 98.6104 23.1328 98.2704 23.1555C97.9417 23.1895 97.6244 23.2065 97.3184 23.2065C96.5817 23.2065 95.9244 23.0988 95.3464 22.8835C94.7684 22.6681 94.281 22.3621 93.8844 21.9655C93.4877 21.5575 93.1817 21.0701 92.9664 20.5035C92.7624 19.9255 92.6604 19.2795 92.6604 18.5655C92.6604 17.8401 92.751 17.1885 92.9324 16.6105C93.1137 16.0211 93.3744 15.5225 93.7144 15.1145C94.0544 14.7065 94.468 14.3948 94.9554 14.1795C95.454 13.9641 96.0207 13.8565 96.6554 13.8565C97.0067 13.8565 97.3184 13.8905 97.5904 13.9585C97.8737 14.0265 98.157 14.1228 98.4404 14.2475V10.2015L100.973 9.79346V22.6965Z" fill="#2A3B47"/>
</svg>
