<svg id="_x33_0" enable-background="new 0 0 64 64" height="512" viewBox="0 0 64 64" width="512" xmlns="http://www.w3.org/2000/svg"><g><g><g><path d="m18.77 46.23 1.23-1.23 5 5-10.34 10.34c-1.06 1.06-2.5 1.66-4 1.66-1.56 0-2.98-.63-4-1.66-1.03-1.02-1.66-2.44-1.66-4v-9.34c0-2.67 1.06-5.2 2.92-7.06l6.08 5.06 1.65-3.31c.74.63 1.39 1.37 1.94 2.19.49.74.88 1.53 1.18 2.35z" fill="#4fc1e9"/></g><g><path d="m9 39 1.39.23c1.69.28 3.27.96 4.61 1.95.23.16.44.33.65.51l-1.65 3.31-6.08-5.06c.33-.34.69-.65 1.08-.94z" fill="#3bafda"/></g><g><path d="m28 45.54c0 .93-.37 1.83-1.04 2.5l-1.96 1.96-5-5 1.96-1.96c.67-.67 1.57-1.04 2.5-1.04.98 0 1.86.4 2.5 1.04s1.04 1.52 1.04 2.5z" fill="#f0d0b4"/></g><g><path d="m11.78 23.56-.01.01-1.77 4.43c-.56 0-1.06.22-1.42.59-.36.36-.58.86-.58 1.41 0 .64.25 1.25.71 1.71l1.29 1.29-.7 4.22-4.66-3.96c-1.68-1.43-2.64-3.53-2.64-5.74v-.4c0-1.33.24-2.64.69-3.86.45-1.23 1.13-2.38 1.99-3.38 1.02-1.19 2.26-2.14 3.65-2.79 1.47-.71 3.1-1.09 4.77-1.09h6.9c.55 0 1 .45 1 1v1 1c0 1.44-.61 2.73-1.58 3.64-.89.85-2.1 1.36-3.42 1.36h-2.89c-.48 0-.96-.15-1.33-.44z" fill="#b27946"/></g><g><path d="m19.58 35c-.77 1.76-2.53 3-4.58 3v3.17.01c-1.34-.99-2.92-1.67-4.61-1.95l-1.39-.23.3-1.78.7-4.22-1.29-1.29c-.46-.46-.71-1.07-.71-1.71 0-.55.22-1.05.58-1.41.36-.37.86-.59 1.42-.59l1.77-4.43.01-.01c.37.29.85.44 1.33.44h2.89c1.32 0 2.53-.51 3.42-1.36.83 1.36 2.58 4.78 2.58 9.36h-2v1c0 .71-.15 1.39-.42 2z" fill="#f0d0b4"/></g><g><path d="m35 2h-25c-1.1 0-2 .9-2 2v6 6c0 .4.12.77.32 1.08l.01.01c1.47-.71 3.1-1.09 4.77-1.09h6.9c.55 0 1 .45 1 1v1h3l3.59 3.59c.26.26.62.41 1 .41.78 0 1.41-.63 1.41-1.41v-2.59h5c1.1 0 2-.9 2-2v-4-2-6c0-1.1-.9-2-2-2z" fill="#e6e9ed"/></g><g><path d="m56 14v3.2c-1.5-.77-3.2-1.2-5-1.2h-2c-4.97 0-9 4.03-9 9v3l-1.59 1.59c-.26.26-.62.41-1 .41-.78 0-1.41-.63-1.41-1.41v-2.59h-4c-1.1 0-2-.9-2-2v-3.41-2.59h5c1.1 0 2-.9 2-2v-4h17c1.1 0 2 .9 2 2z" fill="#ffeaa7"/></g><g><path d="m40.23 34c.28 1.44.82 2.79 1.57 4h-3.8v2.59c0 .78-.63 1.41-1.41 1.41-.38 0-.74-.15-1-.41l-3.59-3.59h-4c-1.1 0-2-.9-2-2v-8c0-1.1.9-2 2-2h4 4v2.59c0 .78.63 1.41 1.41 1.41.38 0 .74-.15 1-.41l1.59-1.59v3.68c0 .79.08 1.57.23 2.32z" fill="#e6e9ed"/></g><g><path d="m62 34.62c0 3.55-.68 7.08-2 10.38 0-3.15-1.48-6.11-4-8l-1-6 1.29-1.29c.46-.46.71-1.07.71-1.71 0-1.1-.9-2-2-2l-.34-.68c-1.02-2.04-3.1-3.32-5.37-3.32h-2.29c-1.66 0-3 1.34-3 3v5 1c0 1.03.31 1.99.85 2.79.9 1.33 2.42 2.21 4.15 2.21h1v3.18.01c-1.02.74-1.9 1.66-2.61 2.73-.15.22-.28.44-.4.67-2.18-1-3.97-2.61-5.19-4.59-.75-1.21-1.29-2.56-1.57-4-.15-.75-.23-1.53-.23-2.32v-3.68-3c0-4.97 4.03-9 9-9h2c1.8 0 3.5.43 5 1.2 3.56 1.82 6 5.52 6 9.8z" fill="#656d78"/></g><g><path d="m59 62h-11l1-4h6.03c1.14 0 2.19-.39 3.03-1.03.21 2.1.94 5.03.94 5.03z" fill="#fcd770"/></g><g><path d="m54 50v2h-6l-.61-.92c-.91-1.36-1.39-2.95-1.39-4.58 0-1.37.34-2.71.99-3.91.12-.23.25-.45.4-.67.71-1.07 1.59-1.99 2.61-2.73v-.01c1.36-.99 2.95-1.67 4.65-1.95l1.35-.23c2.52 1.89 4 4.85 4 8v5z" fill="#fcd770"/></g><g><path d="m60 50v3.03c0 1.6-.76 3.03-1.94 3.94-.84.64-1.89 1.03-3.03 1.03-1.98 0-4.05 0-6.03 0-3.12 0-6.01 0-8.01 0-.83 0-1.57-.34-2.11-.88s-.88-1.29-.88-2.12c0-1.66 1.34-3 3-3h7 6v-2z" fill="#f0d0b4"/></g><g><path d="m55 26c1.1 0 2 .9 2 2 0 .64-.25 1.25-.71 1.71l-1.29 1.29 1 6-1.35.23c-1.7.28-3.29.96-4.65 1.95v-3.18h-1c-1.73 0-3.25-.88-4.15-2.21l.24-.06c.85-.21 1.58-.71 2.1-1.37.51-.66.81-1.48.81-2.36h-4v-5c0-1.66 1.34-3 3-3h2.29c2.27 0 4.35 1.28 5.37 3.32z" fill="#f0d0b4"/></g><g><path d="m44 30h4c0 .88-.3 1.7-.81 2.36-.52.66-1.25 1.16-2.1 1.37l-.24.06c-.54-.8-.85-1.76-.85-2.79z" fill="#ff826e"/></g></g><g><path d="m63 27c0-4.43-2.419-8.298-6-10.377v-2.623c0-1.654-1.346-3-3-3h-16v-7c0-1.654-1.346-3-3-3h-25c-1.654 0-3 1.346-3 3v12c0 .21.029.417.072.619-1.177.678-2.249 1.549-3.155 2.606-1.882 2.195-2.918 4.997-2.918 7.89v.406c0 2.503 1.09 4.873 2.994 6.504l4.223 3.592-.143.86c-2.551 2.075-4.073 5.222-4.073 8.522v9.344c0 3.671 2.986 6.657 6.657 6.657 1.778 0 3.449-.692 4.707-1.95l12.308-12.308c.856-.856 1.328-1.995 1.328-3.207 0-2.501-2.034-4.535-4.535-4.535-1.212 0-2.351.472-3.207 1.328l-2.158 2.158c-.204-.397-.431-.784-.68-1.157-.671-1.006-1.491-1.894-2.421-2.641v-1.771c2.834-.478 5-2.949 5-5.917h2v-1c0-4.232-1.433-7.539-2.346-9.22.84-1.033 1.346-2.348 1.346-3.78h1.587l3.293 3.293c.449.449 1.071.707 1.707.707.142 0 .279-.018.414-.042v1.042c0 .352.072.686.184 1h-1.184c-1.654 0-3 1.346-3 3v8c0 1.654 1.346 3 3 3h3.586l3.293 3.293c.449.449 1.071.707 1.707.707 1.331 0 2.414-1.083 2.414-2.414v-1.586h2.27c1.126 1.653 2.627 3.053 4.421 4.05-.44 1.092-.691 2.255-.691 3.45 0 1.585.401 3.126 1.167 4.5h-5.166c-2.205 0-4 1.794-4.001 4 0 2.206 1.792 4 3.994 4h6.725l-1.001 4h13.562l-.311-1.242c-.006-.026-.605-2.436-.859-4.382 1.16-1.09 1.889-2.634 1.889-4.349v-7.848c1.324-3.378 2-6.93 2-10.562v-7.617zm-57.709 5.504c-1.456-1.248-2.292-3.063-2.292-4.982v-.406c0-2.415.865-4.755 2.437-6.589 1.921-2.242 4.715-3.527 7.668-3.527h6.896v2c0 2.206-1.794 4-4 4h-2.893c-.493 0-.937-.278-1.055-.662-.14-.455.029-.778.143-.932.19-.258.484-.406.804-.406h1v-2h-1c-.947 0-1.85.455-2.413 1.218-.573.774-.736 1.762-.446 2.707.099.321.259.615.462.877l-1.314 3.284c-1.312.319-2.289 1.505-2.289 2.914 0 .91.354 1.768 1 2.414l.929.929-.329 1.975zm9.097 9.482-.719 1.437-3.948-3.29.509.085c1.516.254 2.935.874 4.158 1.768zm10.077 1.014c1.397 0 2.535 1.138 2.535 2.535 0 .678-.264 1.314-.742 1.793l-1.258 1.258-3.586-3.586 1.258-1.258c.478-.478 1.115-.742 1.793-.742zm-6.867 2.987-5.599 5.599v-4.586h-2v6.587l-1.706 1.706 1.414 1.414 10.293-10.293 3.586 3.586-9.636 9.636c-.88.88-2.049 1.364-3.293 1.364-2.568 0-4.657-2.089-4.657-4.657l-.001-9.344c0-2.078.74-4.082 2.029-5.672l6.301 5.249 1.597-3.193c.297.334.58.681.83 1.056.327.491.609 1.01.842 1.548zm1.401-14.987v2c0 .347-.058.678-.142 1h-.622c-.998 0-1.896-.555-2.342-1.447l-1.789.895c.702 1.402 2.035 2.326 3.56 2.513-.708.639-1.637 1.039-2.665 1.039h-1v2.39c-1.073-.552-2.233-.943-3.441-1.144l-.408-.068.921-5.521-1.656-1.656c-.269-.269-.416-.624-.416-1.001 0-.552.448-1 1-1h.677l1.643-4.105c.254.063.516.105.787.105h2.893c1.135 0 2.194-.323 3.1-.873.731 1.435 1.69 3.837 1.87 6.873zm9.294-10.121-3.879-3.879h-2.415c0-1.103-.897-2-2-2h-6.896c-1.418 0-2.801.258-4.104.728v-11.728c0-.552.448-1 1-1h25c.552 0 1 .448 1 1v12c0 .552-.448 1-1 1h-6v3.586c.001.338-.468.53-.706.293zm2.707 3.121v-5h4c1.654 0 3-1.346 3-3v-3h16c.552 0 1 .448 1 1v1.7c-1.253-.445-2.596-.7-4-.7h-2c-5.514 0-10 4.486-10 10v2.586l-1.293 1.293c-.238.238-.707.045-.707-.293v-3.586h-5c-.552 0-1-.448-1-1zm6 13v3.586c0 .338-.469.531-.707.293l-3.879-3.879h-4.414c-.552 0-1-.448-1-1v-8c0-.552.448-1 1-1h7v1.586c0 .142.018.279.042.414h-6.042v2h8.414c.583 0 1.149-.225 1.586-.608v1.292c0 .443.031.881.075 1.316h-10.075v2h10.441c.182.687.415 1.357.705 2zm8.324-4.426c-.208-.483-.325-1.015-.325-1.574h1.819c-.262.699-.802 1.26-1.494 1.574zm3.675-2.574v-1h-4v-4c0-1.103.897-2 2-2h2.293c1.906 0 3.619 1.059 4.471 2.763l.62 1.237h.617c.552 0 1 .448 1 1 0 .378-.147.732-.414 1l-1.657 1.657.921 5.521-.366.061c-1.224.204-2.398.601-3.484 1.161v-2.4h-2.001c-.909 0-1.738-.316-2.41-.829 1.46-.85 2.41-2.413 2.41-4.171zm5.813 8.212.918-.152c2.055 1.698 3.27 4.261 3.27 6.938v4.002h-4.586l-.355-.355c-.683-.683-1.059-1.591-1.059-2.556 0-.558.132-1.116.382-1.615l.513-1.026-1.789-.895-.513 1.025c-.388.776-.593 1.644-.593 2.511 0 1.5.584 2.909 1.645 3.97l.355.355v.586h-4.465l-.316-.475c-.797-1.196-1.219-2.587-1.219-4.025s.422-2.829 1.219-4.025c1.508-2.262 3.911-3.816 6.593-4.263zm-15.812 16.789c.001-1.104.898-2.001 2.001-2.001h13.999v-2h4v2.026c0 2.192-1.779 3.974-3.966 3.974h-14.04c-1.099 0-1.994-.897-1.994-1.999zm18.741 5.999h-8.46l.499-2h5.254c.791 0 1.544-.158 2.235-.439.146.882.323 1.761.472 2.439zm3.259-26.384c0 2.169-.258 4.307-.768 6.392-.687-1.756-1.82-3.323-3.305-4.531l-.855-5.134.928-.929c.645-.645 1-1.502 1-2.414 0-1.43-1.006-2.629-2.347-2.929l-.102-.203c-1.192-2.386-3.59-3.868-6.259-3.868h-2.293c-2.206 0-4 1.794-4 4v6c0 3.309 2.691 6 6 6l.001 1.698c-.911.731-1.713 1.6-2.379 2.578-3.441-1.93-5.621-5.604-5.621-9.592v-6.684c0-4.411 3.589-8 8-8h2c5.514 0 10 4.486 10 10z"/><path d="m11 5h8v2h-8z"/><path d="m21 5h13v2h-13z"/><path d="m11 9h23v2h-23z"/><path d="m24 13h10v2h-10z"/><path d="m31 45h2v2h-2z"/><path d="m35 45h2v2h-2z"/><path d="m39 45h2v2h-2z"/></g></g></svg>