<svg width="33" height="32" viewBox="0 0 33 32" fill="none" xmlns="http://www.w3.org/2000/svg">
<path d="M22.4829 27.6022H3.71826L3.71826 27.0437L3.71826 6.94214H32.174L32.174 26.6204C32.174 26.6204 32.2131 27.6077 31.1511 27.6022C29.5086 27.5937 22.4829 27.6022 22.4829 27.6022Z" fill="#22303A"/>
<path fill-rule="evenodd" clip-rule="evenodd" d="M22.4839 28.2806L22.4828 28.2806L3.71815 28.2806C3.27568 28.2806 2.91699 27.9702 2.91699 27.5873L2.91699 6.92718C2.91699 6.54429 3.27568 6.23389 3.71815 6.23389H32.1739C32.6163 6.23389 32.975 6.54429 32.975 6.92718L32.975 26.5983C32.9751 26.6001 32.9751 26.602 32.9751 26.604C32.9752 26.6072 32.9752 26.6106 32.9752 26.6143C32.9753 26.6291 32.975 26.6479 32.9742 26.6702C32.9726 26.7144 32.9684 26.7735 32.9587 26.8429C32.9399 26.9778 32.8973 27.1708 32.796 27.3735C32.6938 27.5781 32.5209 27.8136 32.2304 27.9966C31.9319 28.1848 31.5639 28.2827 31.1462 28.2805C30.3283 28.2763 28.1645 28.2763 26.2015 28.2774C25.2208 28.2779 24.2914 28.2787 23.6071 28.2794C23.265 28.2797 22.9842 28.28 22.7889 28.2802L22.4852 28.2806L22.4842 28.2806H22.4839C22.4838 28.2806 22.4839 28.2806 22.4828 27.5873C22.4828 27.5873 29.5085 27.5787 31.151 27.5873C32.2129 27.5928 32.1739 26.6054 32.1739 26.6054L32.1739 6.92718H3.71815L3.71815 27.5873H22.4828L22.4839 28.2806Z" fill="black"/>
<path d="M3.72215 6.92725L3.72215 27.5873H2.4398C1.83083 27.5873 1.79248 27.031 1.79248 27.031L1.79248 6.92725H3.72215Z" fill="#2F4350"/>
<path fill-rule="evenodd" clip-rule="evenodd" d="M3.72253 6.23389C4.16499 6.23389 4.52368 6.54429 4.52368 6.92718L4.52368 27.5873C4.52368 27.9702 4.16499 28.2806 3.72253 28.2806H2.44018C1.77606 28.2806 1.37339 27.9471 1.18125 27.6354C1.09388 27.4936 1.04916 27.3593 1.02552 27.2653C1.01332 27.2168 1.00572 27.1748 1.00095 27.1424C0.998554 27.1261 0.99683 27.1119 0.995593 27.1002C0.994973 27.0943 0.994472 27.089 0.994068 27.0844L0.993531 27.0778L0.993311 27.0749L0.993213 27.0736L0.993166 27.0729C0.993144 27.0726 0.993121 27.0723 1.79285 27.031C1.79285 27.031 1.83121 27.5873 2.44018 27.5873H3.72253L3.72253 6.92718H1.79285L1.79285 27.031L0.993121 27.0723C0.992173 27.0585 0.991699 27.0447 0.991699 27.031L0.991699 6.92718C0.991699 6.54429 1.35039 6.23389 1.79285 6.23389H3.72253Z" fill="black"/>
<path d="M32.1755 6.92749H3.7198H1.79078H1.77783L1.77783 5.81042C1.77783 5.19101 2.3533 4.69336 3.07248 4.69336H30.8809C31.5987 4.69336 32.1755 5.19101 32.1755 5.81042V6.92749Z" fill="#172026"/>
<path fill-rule="evenodd" clip-rule="evenodd" d="M32.9766 6.92742C32.9766 7.31032 32.6179 7.62072 32.1754 7.62072H1.77772C1.33525 7.62072 0.976562 7.31032 0.976562 6.92742L0.976562 5.81036C0.976562 4.80658 1.91242 4 3.07237 4H30.8808C32.0389 4 32.9766 4.80613 32.9766 5.81036V6.92742ZM32.1754 6.92742V5.81036C32.1754 5.19095 31.5986 4.6933 30.8808 4.6933H3.07237C2.35319 4.6933 1.77772 5.19095 1.77772 5.81036L1.77772 6.92742H32.1754Z" fill="black"/>
<path d="M24.2115 10.2809H15.0463C14.7796 10.2809 14.564 10.0312 14.564 9.72235C14.564 9.41348 14.7796 9.16382 15.0463 9.16382H24.2115C24.4782 9.16382 24.6938 9.41348 24.6938 9.72235C24.6938 10.0312 24.4782 10.2809 24.2115 10.2809Z" fill="#66D1FF"/>
<path d="M25.6577 12.5148H16.0102C15.7434 12.5148 15.5278 12.2651 15.5278 11.9562C15.5278 11.6474 15.7434 11.3977 16.0102 11.3977H25.6577C25.9244 11.3977 26.14 11.6474 26.14 11.9562C26.14 12.2651 25.9244 12.5148 25.6577 12.5148Z" fill="#51E199"/>
<path d="M22.7647 23.6925H16.0102C15.7434 23.6925 15.5278 23.4428 15.5278 23.134C15.5278 22.8251 15.7434 22.5754 16.0102 22.5754H22.7647C23.0314 22.5754 23.247 22.8251 23.247 23.134C23.247 23.4428 23.0309 23.6925 22.7647 23.6925Z" fill="#51E199"/>
<path d="M28.5525 12.5148H27.5878C27.3211 12.5148 27.1055 12.2651 27.1055 11.9562C27.1055 11.6474 27.3211 11.3977 27.5878 11.3977H28.5525C28.8192 11.3977 29.0348 11.6474 29.0348 11.9562C29.0348 12.2651 28.8192 12.5148 28.5525 12.5148Z" fill="#51E199"/>
<path d="M17.9403 25.92H15.0463C14.7796 25.92 14.564 25.6704 14.564 25.3615C14.564 25.0526 14.7796 24.803 15.0463 24.803H17.9403C18.207 24.803 18.4226 25.0526 18.4226 25.3615C18.4226 25.6704 18.207 25.92 17.9403 25.92Z" fill="#66D1FF"/>
<path d="M30.9706 14.7504H20.8407C20.574 14.7504 20.3584 14.5007 20.3584 14.1918C20.3584 13.883 20.574 13.6333 20.8407 13.6333H30.9706C31.2373 13.6333 31.4529 13.883 31.4529 14.1918C31.4529 14.5007 31.2373 14.7504 30.9706 14.7504Z" fill="#EB5757"/>
<path d="M23.2453 16.9811H16.974C16.7073 16.9811 16.4917 16.7314 16.4917 16.4225C16.4917 16.1137 16.7073 15.864 16.974 15.864H23.2453C23.512 15.864 23.7276 16.1137 23.7276 16.4225C23.7276 16.7314 23.512 16.9811 23.2453 16.9811Z" fill="#FFC757"/>
<path d="M27.1078 21.4537H16.974C16.7073 21.4537 16.4917 21.2041 16.4917 20.8952C16.4917 20.5863 16.7073 20.3367 16.974 20.3367H27.1078C27.3745 20.3367 27.5901 20.5863 27.5901 20.8952C27.5901 21.2041 27.374 21.4537 27.1078 21.4537Z" fill="#EB5757"/>
<path d="M27.1109 19.215H20.3588C20.0921 19.215 19.8765 18.9653 19.8765 18.6564C19.8765 18.3476 20.0921 18.0979 20.3588 18.0979H27.1109C27.3776 18.0979 27.5932 18.3476 27.5932 18.6564C27.5932 18.9653 27.3776 19.215 27.1109 19.215Z" fill="#FFC757"/>
<path d="M18.4215 19.215H16.974C16.7073 19.215 16.4917 18.9653 16.4917 18.6564C16.4917 18.3476 16.7073 18.0979 16.974 18.0979H18.4215C18.6882 18.0979 18.9038 18.3476 18.9038 18.6564C18.9038 18.9653 18.6882 19.215 18.4215 19.215Z" fill="#FFC757"/>
<path d="M18.9033 14.7504H16.974C16.7073 14.7504 16.4917 14.5007 16.4917 14.1918C16.4917 13.883 16.7073 13.6333 16.974 13.6333H18.9033C19.1701 13.6333 19.3857 13.883 19.3857 14.1918C19.3857 14.5007 19.1701 14.7504 18.9033 14.7504Z" fill="#EB5757"/>
<path d="M7.75254 14.8087C7.61204 14.666 7.38425 14.666 7.2438 14.8087L5.08195 17.0066C5.01446 17.0752 4.97656 17.1682 4.97656 17.2653C4.97656 17.3623 5.01446 17.4553 5.08195 17.5239L7.21522 19.6927C7.28544 19.7641 7.37754 19.7998 7.46958 19.7998C7.56163 19.7998 7.65373 19.7641 7.72395 19.6927C7.86445 19.5498 7.86445 19.3183 7.72395 19.1755L5.84505 17.2653L7.75254 15.3261C7.89308 15.1832 7.89308 14.9516 7.75254 14.8087Z" fill="#2CD37F"/>
<path d="M12.5905 19.6925C12.6607 19.7639 12.7528 19.7996 12.8449 19.7996C12.9369 19.7996 13.029 19.7639 13.0992 19.6925L15.2326 17.5237C15.3 17.4551 15.3379 17.3621 15.3379 17.265C15.3379 17.168 15.3 17.075 15.2326 17.0064L13.0706 14.8085C12.9302 14.6657 12.7024 14.6657 12.5619 14.8085C12.4214 14.9514 12.4214 15.1829 12.5619 15.3258L14.4695 17.265L12.5906 19.1752C12.45 19.3181 12.45 19.5496 12.5905 19.6925Z" fill="#2CD37F"/>
<path d="M8.88027 21.0398C9.02537 21.0398 9.16212 20.9498 9.21666 20.8037L11.773 13.9571C11.8435 13.7682 11.7501 13.557 11.5643 13.4853C11.3786 13.4136 11.1708 13.5087 11.1004 13.6975L8.54402 20.5442C8.47351 20.733 8.56695 20.9442 8.75267 21.0159C8.79469 21.0321 8.83782 21.0398 8.88027 21.0398Z" fill="#2CD37F"/>
<path d="M3.32621 6.36853C3.02151 6.36853 2.77246 6.11887 2.77246 5.81C2.77246 5.50113 3.016 5.25146 3.32015 5.25146H3.32621C3.63036 5.25146 3.87721 5.50113 3.87721 5.81C3.87721 6.11887 3.63036 6.36853 3.32621 6.36853Z" fill="#FFC757"/>
<path d="M4.97758 6.36853C4.67288 6.36853 4.42383 6.11887 4.42383 5.81C4.42383 5.50113 4.66737 5.25146 4.97152 5.25146H4.97758C5.28173 5.25146 5.52858 5.50113 5.52858 5.81C5.52858 6.11887 5.28173 6.36853 4.97758 6.36853Z" fill="#2CD37F"/>
<path d="M6.62943 6.36853C6.32473 6.36853 6.07568 6.11887 6.07568 5.81C6.07568 5.50113 6.31922 5.25146 6.62337 5.25146H6.62943C6.93358 5.25146 7.18043 5.50113 7.18043 5.81C7.18043 6.11887 6.93358 6.36853 6.62943 6.36853Z" fill="#EB5757"/>
</svg>
